<?xml version="1.0" encoding="utf-8"?>
<!-- Generator: Adobe Illustrator 16.0.0, SVG Export Plug-In . SVG Version: 6.00 Build 0)  -->
<!DOCTYPE svg PUBLIC "-//W3C//DTD SVG 1.1//EN" "http://www.w3.org/Graphics/SVG/1.1/DTD/svg11.dtd">
<svg version="1.1" id="Layer_1" xmlns="http://www.w3.org/2000/svg" xmlns:xlink="http://www.w3.org/1999/xlink" x="0px" y="0px"
	 width="212.795px" height="220.59px" viewBox="0 0 212.795 220.59" enable-background="new 0 0 212.795 220.59"
	 xml:space="preserve">
<path fill="#34495E" d="M180.249,19.651v183.271c0,2.509-2.03,4.53-4.531,4.53H42.959c-2.501,0-4.531-2.021-4.531-4.53v-11.891h8.31
	c2.002,0,3.624-1.622,3.624-3.625c0-2.002-1.622-3.624-3.624-3.624h-8.31v-18.124h8.31c2.002,0,3.624-1.623,3.624-3.625
	c0-2.003-1.622-3.625-3.624-3.625h-8.31v-18.124h8.31c2.002,0,3.624-1.622,3.624-3.625s-1.622-3.625-3.624-3.625h-8.31v-18.124h8.31
	c2.002,0,3.624-1.622,3.624-3.625c0-2.002-1.622-3.624-3.624-3.624h-8.31V89.537h8.31c2.002,0,3.624-1.622,3.624-3.624
	c0-2.003-1.622-3.625-3.624-3.625h-8.31V64.164h8.31c2.002,0,3.624-1.621,3.624-3.625c0-2.003-1.622-3.625-3.624-3.625h-8.31V38.79
	h8.31c2.002,0,3.624-1.621,3.624-3.625c0-2.002-1.622-3.623-3.624-3.623h-8.31V19.651c0-2.511,2.03-4.531,4.531-4.531h132.759
	C178.219,15.12,180.249,17.141,180.249,19.651"/>
<path fill="#10003B" d="M175.718,209.453H42.959c-3.601,0-6.531-2.93-6.531-6.53v-11.891c0-1.104,0.896-2,2-2h8.311
	c0.895,0,1.624-0.729,1.624-1.625c0-0.896-0.729-1.624-1.624-1.624h-8.311c-1.104,0-2-0.896-2-2v-18.124c0-1.104,0.896-2,2-2h8.311
	c0.895,0,1.624-0.729,1.624-1.625s-0.729-1.625-1.624-1.625h-8.311c-1.104,0-2-0.896-2-2v-18.124c0-1.104,0.896-2,2-2h8.311
	c0.895,0,1.624-0.729,1.624-1.625s-0.729-1.625-1.624-1.625h-8.311c-1.104,0-2-0.896-2-2v-18.124c0-1.104,0.896-2,2-2h8.311
	c0.895,0,1.624-0.729,1.624-1.625c0-0.896-0.729-1.624-1.624-1.624h-8.311c-1.104,0-2-0.896-2-2V89.537c0-1.104,0.896-2,2-2h8.311
	c0.895,0,1.624-0.729,1.624-1.624c0-0.896-0.729-1.625-1.624-1.625h-8.311c-1.104,0-2-0.896-2-2V64.164c0-1.104,0.896-2,2-2h8.311
	c0.895,0,1.624-0.729,1.624-1.625s-0.729-1.625-1.624-1.625h-8.311c-1.104,0-2-0.896-2-2V38.79c0-1.104,0.896-2,2-2h8.311
	c0.895,0,1.624-0.729,1.624-1.625c0-0.896-0.729-1.624-1.624-1.624h-8.311c-1.104,0-2-0.896-2-2v-11.89
	c0-3.601,2.93-6.531,6.531-6.531h132.759c3.603,0,6.531,2.931,6.531,6.531v183.271C182.249,206.523,179.32,209.453,175.718,209.453
	 M40.428,193.032v9.891c0,1.395,1.136,2.53,2.531,2.53h132.759c1.396,0,2.531-1.136,2.531-2.53V19.651
	c0-1.395-1.135-2.531-2.531-2.531H42.959c-1.395,0-2.531,1.137-2.531,2.531v9.89h6.311c3.101,0,5.624,2.522,5.624,5.624
	s-2.523,5.625-5.624,5.625h-6.311v14.124h6.311c3.101,0,5.624,2.523,5.624,5.625s-2.523,5.625-5.624,5.625h-6.311v14.124h6.311
	c3.101,0,5.624,2.523,5.624,5.625s-2.523,5.624-5.624,5.624h-6.311v14.125h6.311c3.101,0,5.624,2.522,5.624,5.624
	s-2.523,5.625-5.624,5.625h-6.311v14.124h6.311c3.101,0,5.624,2.523,5.624,5.625s-2.523,5.625-5.624,5.625h-6.311v14.124h6.311
	c3.101,0,5.624,2.523,5.624,5.625c0,3.103-2.523,5.625-5.624,5.625h-6.311v14.124h6.311c3.101,0,5.624,2.522,5.624,5.624
	c0,3.103-2.523,5.625-5.624,5.625H40.428z"/>
<path fill="#80DDFF" d="M148.535,99.619H70.148c-2.503,0-4.531-2.028-4.531-4.531V61.257c0-2.503,2.028-4.531,4.531-4.531h78.387
	c2.502,0,4.53,2.028,4.53,4.531v33.831C153.065,97.591,151.037,99.619,148.535,99.619"/>
<path fill="#10003B" d="M148.535,101.62H70.148c-3.602,0-6.531-2.931-6.531-6.532V61.257c0-3.601,2.929-6.531,6.531-6.531h78.387
	c3.601,0,6.53,2.931,6.53,6.531v33.831C155.065,98.689,152.136,101.62,148.535,101.62 M70.148,58.726
	c-1.396,0-2.531,1.136-2.531,2.531v33.831c0,1.396,1.135,2.532,2.531,2.532h78.387c1.396,0,2.53-1.137,2.53-2.532V61.257
	c0-1.396-1.135-2.531-2.53-2.531H70.148z"/>
<path fill="#FFD161" d="M148.535,142.513H70.148c-2.503,0-4.531-2.028-4.531-4.531v-12.385c0-2.502,2.028-4.53,4.531-4.53h78.387
	c2.502,0,4.53,2.028,4.53,4.53v12.385C153.065,140.484,151.037,142.513,148.535,142.513"/>
<path fill="#10003B" d="M148.535,144.513H70.148c-3.602,0-6.531-2.929-6.531-6.531v-12.385c0-3.6,2.929-6.53,6.531-6.53h78.387
	c3.601,0,6.53,2.931,6.53,6.53v12.385C155.065,141.584,152.136,144.513,148.535,144.513 M70.148,123.066
	c-1.396,0-2.531,1.135-2.531,2.53v12.385c0,1.396,1.135,2.531,2.531,2.531h78.387c1.396,0,2.53-1.135,2.53-2.531v-12.385
	c0-1.396-1.135-2.53-2.53-2.53H70.148z"/>
<path fill="#FE7058" d="M50.362,187.407c0,2.003-1.622,3.625-3.624,3.625H30.127c-2.003,0-3.625-1.622-3.625-3.625
	c0-2.002,1.622-3.624,3.625-3.624h16.611C48.74,183.783,50.362,185.405,50.362,187.407"/>
<path fill="#10003B" d="M46.738,193.032H30.127c-3.102,0-5.625-2.522-5.625-5.625c0-3.102,2.523-5.624,5.625-5.624h16.611
	c3.102,0,5.624,2.522,5.624,5.624C52.362,190.51,49.84,193.032,46.738,193.032 M30.127,185.783c-0.896,0-1.625,0.729-1.625,1.624
	c0,0.897,0.729,1.625,1.625,1.625h16.611c0.896,0,1.624-0.728,1.624-1.625c0-0.895-0.729-1.624-1.624-1.624H30.127z"/>
<path fill="#FE7058" d="M50.362,162.034c0,2.002-1.622,3.625-3.624,3.625H30.127c-2.003,0-3.625-1.623-3.625-3.625
	c0-2.003,1.622-3.625,3.625-3.625h16.611C48.74,158.409,50.362,160.031,50.362,162.034"/>
<path fill="#10003B" d="M46.738,167.659H30.127c-3.102,0-5.625-2.522-5.625-5.625c0-3.102,2.523-5.625,5.625-5.625h16.611
	c3.102,0,5.624,2.523,5.624,5.625C52.362,165.137,49.84,167.659,46.738,167.659 M30.127,160.409c-0.896,0-1.625,0.729-1.625,1.625
	c0,0.896,0.729,1.625,1.625,1.625h16.611c0.896,0,1.624-0.729,1.624-1.625c0-0.896-0.729-1.625-1.624-1.625H30.127z"/>
<path fill="#FE7058" d="M50.362,136.66c0,2.003-1.622,3.625-3.624,3.625H30.127c-2.003,0-3.625-1.622-3.625-3.625
	s1.622-3.625,3.625-3.625h16.611C48.74,133.035,50.362,134.657,50.362,136.66"/>
<path fill="#10003B" d="M46.738,142.285H30.127c-3.102,0-5.625-2.522-5.625-5.625c0-3.102,2.523-5.625,5.625-5.625h16.611
	c3.102,0,5.624,2.523,5.624,5.625C52.362,139.763,49.84,142.285,46.738,142.285 M30.127,135.035c-0.896,0-1.625,0.729-1.625,1.625
	c0,0.896,0.729,1.625,1.625,1.625h16.611c0.896,0,1.624-0.729,1.624-1.625c0-0.896-0.729-1.625-1.624-1.625H30.127z"/>
<path fill="#FE7058" d="M50.362,111.286c0,2.003-1.622,3.625-3.624,3.625H30.127c-2.003,0-3.625-1.622-3.625-3.625
	c0-2.002,1.622-3.624,3.625-3.624h16.611C48.74,107.662,50.362,109.284,50.362,111.286"/>
<path fill="#10003B" d="M46.738,116.911H30.127c-3.102,0-5.625-2.522-5.625-5.625c0-3.102,2.523-5.624,5.625-5.624h16.611
	c3.102,0,5.624,2.522,5.624,5.624C52.362,114.389,49.84,116.911,46.738,116.911 M30.127,109.662c-0.896,0-1.625,0.729-1.625,1.624
	c0,0.897,0.729,1.625,1.625,1.625h16.611c0.896,0,1.624-0.728,1.624-1.625c0-0.895-0.729-1.624-1.624-1.624H30.127z"/>
<path fill="#FE7058" d="M50.362,85.913c0,2.002-1.622,3.624-3.624,3.624H30.127c-2.003,0-3.625-1.622-3.625-3.624
	c0-2.003,1.622-3.625,3.625-3.625h16.611C48.74,82.288,50.362,83.91,50.362,85.913"/>
<path fill="#10003B" d="M46.738,91.537H30.127c-3.102,0-5.625-2.521-5.625-5.624c0-3.102,2.523-5.625,5.625-5.625h16.611
	c3.102,0,5.624,2.523,5.624,5.625C52.362,89.016,49.84,91.537,46.738,91.537 M30.127,84.288c-0.896,0-1.625,0.729-1.625,1.625
	c0,0.896,0.729,1.624,1.625,1.624h16.611c0.896,0,1.624-0.728,1.624-1.624c0-0.896-0.729-1.625-1.624-1.625H30.127z"/>
<path fill="#FE7058" d="M50.362,60.539c0,2.003-1.622,3.625-3.624,3.625H30.127c-2.003,0-3.625-1.622-3.625-3.625
	s1.622-3.625,3.625-3.625h16.611C48.74,56.914,50.362,58.536,50.362,60.539"/>
<path fill="#10003B" d="M46.738,66.164H30.127c-3.102,0-5.625-2.522-5.625-5.625c0-3.102,2.523-5.625,5.625-5.625h16.611
	c3.102,0,5.624,2.523,5.624,5.625C52.362,63.642,49.84,66.164,46.738,66.164 M30.127,58.914c-0.896,0-1.625,0.729-1.625,1.625
	c0,0.896,0.729,1.625,1.625,1.625h16.611c0.896,0,1.624-0.729,1.624-1.625c0-0.896-0.729-1.625-1.624-1.625H30.127z"/>
<path fill="#FE7058" d="M50.362,35.165c0,2.003-1.622,3.625-3.624,3.625H30.127c-2.003,0-3.625-1.622-3.625-3.625
	c0-2.002,1.622-3.624,3.625-3.624h16.611C48.74,31.541,50.362,33.163,50.362,35.165"/>
<path fill="#10003B" d="M46.738,40.79H30.127c-3.102,0-5.625-2.522-5.625-5.625c0-3.102,2.523-5.624,5.625-5.624h16.611
	c3.102,0,5.624,2.522,5.624,5.624C52.362,38.268,49.84,40.79,46.738,40.79 M30.127,33.541c-0.896,0-1.625,0.729-1.625,1.624
	c0,0.897,0.729,1.625,1.625,1.625h16.611c0.896,0,1.624-0.728,1.624-1.625c0-0.895-0.729-1.624-1.624-1.624H30.127z"/>
</svg>
