<?xml version="1.0" encoding="UTF-8" standalone="no"?> <svg id="Layer_1" data-name="Layer 1" xmlns="http://www.w3.org/2000/svg" viewBox="0 0 128 128"><defs><style>.cls-1{fill:#2e79bd;}.cls-2{fill:#2d3e50;}</style></defs><title>b</title><rect class="cls-1" x="15.46864" y="87.56501" width="8.64107" height="12.82345"/><rect class="cls-1" x="15.46864" y="64.43378" width="8.64107" height="12.82344"/><rect class="cls-1" x="46.74496" y="55.82613" width="11.81934" height="12.82344"/><rect class="cls-1" x="46.74496" y="32.69487" width="11.81934" height="12.82344"/><rect class="cls-1" x="46.74496" y="79.20617" width="14.96463" height="26.72666"/><rect class="cls-1" x="103.89029" y="87.56501" width="8.64107" height="12.82345"/><rect class="cls-1" x="103.89029" y="64.43378" width="8.64107" height="12.82344"/><rect class="cls-1" x="69.4357" y="55.82613" width="11.81934" height="12.82344"/><rect class="cls-1" x="69.4357" y="32.69487" width="11.81934" height="12.82344"/><rect class="cls-1" x="66.29042" y="79.20617" width="14.96463" height="26.72666"/><path class="cls-2" d="M96.24545,43.74789v-24.027L64,4.9124,31.75455,19.72093v24.027H1.784V123.0876H126.216V43.74789Zm-64.4909,71.28673H7.82378v-65.247H31.75455Zm58.45117,0H37.79428V23.59307L64,11.55835,90.20572,23.59307Zm29.9705,0H96.24545v-65.247h23.93077Z"/></svg>