<?xml version="1.0" encoding="UTF-8" standalone="no"?> <svg id="Layer_1" data-name="Layer 1" xmlns="http://www.w3.org/2000/svg" viewBox="0 0 128 128"><defs><style>.cls-1{fill:#2e79bd;}.cls-2{fill:#2d3e50;}</style></defs><title>b</title><path class="cls-1" d="M59.65761,34.97687a15.44861,15.44861,0,0,1,.18652-2.06335,5.98588,5.98588,0,0,1,.19262-.86967,4.76523,4.76523,0,0,0,.13111-.63772,3.38327,3.38327,0,0,0-.21592-1.88032,1.22406,1.22406,0,0,0-1.12607-.74193.74648.74648,0,0,0-.28478.00147,2.8446,2.8446,0,0,0-1.291.73365c-.095.07815-.18392.15122-.26229.20945-.36919.2713-.73451.55252-1.10106.8351-.33455.2572-.66978.51568-1.0105.76773l-.09832.07883c-.32288.2382-.65182.46726-.98215.69706l-.39177.27356c-.24252.17206-.48608.33468-.73.49742-.058.03892-.12851.07791-.20176.1191a1.74565,1.74565,0,0,0-.58029.44072,1.02167,1.02167,0,0,0-.1058,1.0413,1.94831,1.94831,0,0,0,1.398,1.02775,2.51275,2.51275,0,0,0,1.54831-.40173c.19339-.11113.3831-.23311.57015-.35349a6.58153,6.58153,0,0,1,.85839-.49638,1.98455,1.98455,0,0,1,.21107-.07883,11.73975,11.73975,0,0,1,.0023,3.47867c-.05477.5768-.10659,1.12184-.12134,1.64984-.05685,1.712-.08735,3.5792-.09314,5.7066-.00487.49251.00567,1.03229.0206,1.62349.00438.21411.00886.429.02433.652.01266.36631.02761.74916.04622,1.17315-.0156.01385-.03338.02826-.053.04419l-.03951.03371a3.40268,3.40268,0,0,1-.92388.3842l-.19808.06191c-.1674.05511-.37155.10561-.59243.16023-1.042.259-2.61627.65-2.458,2.08161a1.96433,1.96433,0,0,0,.81855,1.26491,1.47828,1.47828,0,0,0,1.7078.04119c.081-.03482.16317-.06982.24776-.103l.21083-.08557c.13179-.05419.26351-.10862.41212-.16047a15.687,15.687,0,0,1,1.52431-.54308c.0069-.0087.0358.00607.08128.03469a2.1051,2.1051,0,0,1,.36223.32781,1.669,1.669,0,0,0,.53554.43048,2.11976,2.11976,0,0,0,.92919.06632,2.86772,2.86772,0,0,0,1.36417-.48847.95594.95594,0,0,0,.4261-.8872c-.01168-.10641-.0396-.24451-.07389-.4097l-.027-.13056c-.02151-.09354-.03445-.174-.04634-.24482l-.02335-.13779a4.44412,4.44412,0,0,1,1.501-.54235l.32462-.07981a4.52188,4.52188,0,0,0,1.68837-.66555c.31644-.22741.301-.72605.26164-1.08114a1.92842,1.92842,0,0,0-.07135-.33737,3.11972,3.11972,0,0,0-.48939-1.00354.63555.63555,0,0,0-.41142-.24236,1.4742,1.4742,0,0,0-.73816.18757c-.06.027-.11671.05271-.16688.07159q-.445.16679-.892.32744a16.864,16.864,0,0,1-1.66517.52629c-.04652.0114-.085.02-.11631.026-.01036-.03935-.02133-.07968-.03246-.121l-.01379-.04989a3.76737,3.76737,0,0,1-.07947-.47737,2.24855,2.24855,0,0,1-.0164-.23617l-.0187-.1666c-.00386-.07668-.00941-.15085-.01486-.22257-.00567-.0727-.01131-.143-.01376-.21215-.00313-.07055-.00794-.13638-.01235-.1978-.00457-.06307-.00886-.12106-.01158-.20093-.00665-.05946-.00935-.1107-.0118-.15508-.00239-.04364-.00475-.0822-.00852-.11573a48.31262,48.31262,0,0,1,.16231-9.09321C59.62205,35.74736,59.63992,35.36058,59.65761,34.97687Z"/><path class="cls-1" d="M69.89567,38.29035q-.34617.04349-.7248.10813l-.30191.0518c-.63874.11033-1.29776.22631-1.95059.28386-.08741.00815-.20047.00846-.326.00962-.57468.0049-1.362.012-1.6173.57146a1.50652,1.50652,0,0,0,.1921,1.65015,1.54857,1.54857,0,0,0,1.51876.164,3.82051,3.82051,0,0,1,.38074-.07588c.84114-.10151,1.665-.19461,2.48365-.21625.14555-.00343.27865-.0133.39772-.02213l.03825-.00264.00579.15686c.01667.46138.03194.88248.03656,1.25945l.00282.0727a.2737.2737,0,0,0,.00233.056,7.91557,7.91557,0,0,0,.16605,2.09657c.17331.62154.68305.89008,1.51515.79807l.0072-.00086a1.116,1.116,0,0,0,.80479-.35785.976.976,0,0,0,.11288-.77276c-.02584-.14778-.043-.30544-.06384-.49374l-.00867-.07674a19.60561,19.60561,0,0,1-.13549-2.56432c.01968-.14509.04073-.273.07837-.43637.10715-.01263.20271-.02587.274-.04a2.61469,2.61469,0,0,0,.42166-.04738,10.86439,10.86439,0,0,1,1.82248-.19762c.1393-.00441.28349.00012.42916.00441a3.67407,3.67407,0,0,0,1.02855-.06546,1.0007,1.0007,0,0,0,.66184-.43581A1.36118,1.36118,0,0,0,77.164,38.729a1.33656,1.33656,0,0,0-1.0291-1.09107,5.72538,5.72538,0,0,0-2.20635.07509,7.97692,7.97692,0,0,1-1.36224.14576c-.10141-.00159-.19912-.00785-.2823-.01422a14.29632,14.29632,0,0,1-.235-1.4613c-.01045-.09329-.0133-.241-.01775-.42074-.025-1.01935-.09142-2.05158-.59577-2.49193a.81749.81749,0,0,0-.64385-.19823,1.268,1.268,0,0,0-.91383.49392c-.52705.71152-.28579,1.9931-.09194,3.02306a6.58014,6.58014,0,0,1,.14864,1.043,3.19059,3.19059,0,0,1-.03356.42478Z"/><path class="cls-1" d="M88.385,38.71532c-.29931.36275-.60781.72648-.92762,1.08218-.41666.46536-.85159.92042-1.29016,1.35054a19.41479,19.41479,0,0,1-2.7593,2.23216c-.43189.28423-.82731.54523-1.19218.8123a7.10756,7.10756,0,0,0-2.04379,2.27445l-.03123.05982c-.01722.03175-.03448.06381-.04646.08986-.43486.90111-.69694,2.57713.45129,3.23888a1.24555,1.24555,0,0,0,.77975.17316,2.97689,2.97689,0,0,0,1.44162-.81787,4.858,4.858,0,0,1,.569-.43606,12.10926,12.10926,0,0,1,3.05316-1.2635,17.08963,17.08963,0,0,1,2.56886-.51464,29.72225,29.72225,0,0,1,3.92978-.17255c.0955.00141.18775.00674.27669.01226A1.4178,1.4178,0,0,0,94.50318,46.39a2.37066,2.37066,0,0,0,.49052-1.63605l-.00877-.18775a1.10051,1.10051,0,0,0-.37893-.80666,1.03677,1.03677,0,0,0-.812-.115c-.05891.00919-.11692.01851-.17555.02231-.16832.01373-.33667.025-.50526.03672-.17114.01134-.34225.023-.50839.03659-1.25973.08159-2.5627.16574-3.84014.307l-.18367.02c-.50441.05449-.93648.11223-1.30637.16219.45494-.35233.91022-.73653,1.36019-1.1482.07923-.06828.15808-.14239.23792-.21772.0651-.0616.1313-.12388.19983-.18444l.01024-.00956c.36474-.35576.73705-.732,1.08724-1.10829a2.428,2.428,0,0,0,.18177-.18469l.10019-.10715A27.77824,27.77824,0,0,0,92.917,38.17c.476-.68774.88616-1.32338,1.255-1.94425l.20087-.33989A7.64422,7.64422,0,0,0,95.85194,31.72a4.59373,4.59373,0,0,0-.17868-1.0527,7.80134,7.80134,0,0,0-3.88044-4.42637,6.61581,6.61581,0,0,0-1.86588-.63031,7.64271,7.64271,0,0,0-5.22423,1.08886,1.19936,1.19936,0,0,0-.175.10512,16.38976,16.38976,0,0,0-2.055,1.3905l-.05507.04285-.02921.06283a1.64268,1.64268,0,0,0-.08327,1.11681,2.18921,2.18921,0,0,0,.67631,1.1428,1.45475,1.45475,0,0,0,1.28023.39426l.07512-.01483.058-.05014c.11159-.09746.23311-.19578.35463-.29048a12.14543,12.14543,0,0,1,1.22687-.90933l.0635-.04144a.63492.63492,0,0,0,.07656-.0494,5.275,5.275,0,0,1,1.32494-.63031,2.93031,2.93031,0,0,1,.556-.08839,3.68415,3.68415,0,0,1,3.04215,1.40111,3.43865,3.43865,0,0,1,.63043,3.10311A15.93948,15.93948,0,0,1,88.385,38.71532Z"/><path class="cls-2" d="M32.70972,63.58159a8.16586,8.16586,0,0,0,8.01244-6.604l1.246-6.42278a8.59818,8.59818,0,0,0-8.51837-9.75686H31.96966a8.59824,8.59824,0,0,0-8.51843,9.75686l1.24609,6.42278A8.16585,8.16585,0,0,0,32.70972,63.58159Z"/><path class="cls-2" d="M72.93268,53.76816a4.03221,4.03221,0,0,0-5.49283,1.51855L59.47669,69.36763s-17.03794-2.25245-18.41116-2.42677a2.07632,2.07632,0,0,0-.42141-.01453h-.01453c-.05085-.00729-.09443-.01453-.138-.02182a1.9921,1.9921,0,0,0-.78468.05088l-.21074-.06546-4.09782,4.09789-2.20877,2.19428-.574.58844-.14533.14539-.1598-.16715V73.698l-.02908.02905-.02905-.02905v.05081l-.15986.16715-.71931-.73384-2.20877-2.19428-4.09782-4.09789-.21067.06546a2.002,2.002,0,0,0-.78471-.05088c-1.49673.19615-7.83235,1.49673-10.14281,1.97631a3.33094,3.33094,0,0,0-1.77284.959,5.85353,5.85353,0,0,0-.86461,1.20606L5.6963,81.40679l-2.28141,4.2141-.25426.47222A4.15423,4.15423,0,0,0,3.117,89.90757l7.64343,15.1416a3.872,3.872,0,0,0,4.45386,1.99813,2.60253,2.60253,0,0,0,.50857-.16709,3.38855,3.38855,0,0,0,.72657-.40688v3.41977a15.50728,15.50728,0,0,0,31.01035.36159c.19308-8.34791.38561-17.367.58075-24.29236.00726-.218.03635-1.29322.07264-2.5357,0-.08716.00729-.18162.00729-.27608.05811-1.87456.11625-3.9889.11625-4.03242l9.35813-.0654,4.09059-.02912h.494a4.3868,4.3868,0,0,0,3.9162-2.48482l8.479-17.503A4.04038,4.04038,0,0,0,72.93268,53.76816ZM16.44947,98.5828l-4.1632-9.91758,4.1632-5.52921Z"/><path class="cls-1" d="M120.23855,2.59968H24.52614a5.08108,5.08108,0,0,0-5.08163,5.08163v.949a5.08855,5.08855,0,0,0,5.08163,5.08659V38.90926A12.7926,12.7926,0,0,1,31.536,36.53912V17.493h81.69774V71.99H73.04267l-3.10324,6.40728c-.1004.20589-.20586.40676-.32134.60254h46.36734a4.25493,4.25493,0,0,0,4.25312-4.25309V13.71695a5.08959,5.08959,0,0,0,5.08662-5.08659v-.949A5.08213,5.08213,0,0,0,120.23855,2.59968Z"/></svg>