<svg width="440" height="440" viewBox="0 0 440 440" fill="none" xmlns="http://www.w3.org/2000/svg">
<g filter="url(#filter0_d)">
<circle cx="220" cy="218.638" r="136.223" fill="#FF6915"/>
<path d="M208.216 21C213.605 11.6667 227.076 11.6667 232.465 21L245.083 42.8545C250.471 52.1878 243.736 63.8545 232.958 63.8545H207.723C196.946 63.8545 190.21 52.1878 195.599 42.8545L208.216 21Z" fill="#FFFB8F"/>
<path d="M419 206.854C428.333 212.243 428.333 225.714 419 231.103L397.145 243.72C387.812 249.109 376.146 242.373 376.146 231.596L376.146 206.361C376.146 195.583 387.812 188.848 397.146 194.236L419 206.854Z" fill="#FFFB8F"/>
<path d="M398.385 307.391C403.774 316.725 397.038 328.391 386.261 328.391L361.025 328.391C350.248 328.391 343.512 316.725 348.901 307.391L361.519 285.537C366.907 276.203 380.379 276.203 385.767 285.537L398.385 307.391Z" fill="#FFFB8F"/>
<path d="M232.465 419C227.076 428.333 213.605 428.333 208.216 419L195.598 397.145C190.21 387.812 196.946 376.146 207.723 376.146L232.958 376.146C243.735 376.146 250.471 387.812 245.083 397.146L232.465 419Z" fill="#FFFB8F"/>
<path d="M21 231.103C11.6667 225.714 11.6667 212.243 21 206.854L42.8545 194.236C52.1878 188.848 63.8545 195.583 63.8545 206.361L63.8545 231.596C63.8545 242.373 52.1878 249.109 42.8545 243.72L21 231.103Z" fill="#FFFB8F"/>
<path d="M41.5825 129.391C36.1939 120.058 42.9297 108.391 53.7069 108.391L78.9423 108.391C89.7195 108.391 96.4552 120.058 91.0666 129.391L78.4489 151.246C73.0603 160.579 59.5888 160.579 54.2002 151.246L41.5825 129.391Z" fill="#FFFB8F"/>
<path d="M385.926 108.584C396.703 108.584 403.439 120.251 398.051 129.584L385.433 151.439C380.044 160.772 366.573 160.772 361.184 151.439L348.566 129.584C343.178 120.251 349.914 108.584 360.691 108.584L385.926 108.584Z" fill="#FFFB8F"/>
<path d="M53.3723 328.584C42.5951 328.584 35.8594 316.918 41.248 307.584L53.8657 285.73C59.2543 276.396 72.7258 276.396 78.1144 285.73L90.7321 307.584C96.1207 316.918 89.3849 328.584 78.6077 328.584L53.3723 328.584Z" fill="#FFFB8F"/>
<path d="M131.37 397.179C122.037 402.567 110.37 395.831 110.37 385.054L110.37 359.819C110.37 349.042 122.037 342.306 131.37 347.694L153.224 360.312C162.558 365.701 162.558 379.172 153.224 384.561L131.37 397.179Z" fill="#FFFB8F"/>
<path d="M309.37 40.3763C318.703 34.9877 330.37 41.7234 330.37 52.5006L330.37 77.736C330.37 88.5132 318.703 95.249 309.37 89.8604L287.515 77.2427C278.182 71.8541 278.182 58.3826 287.515 52.994L309.37 40.3763Z" fill="#FFFB8F"/>
<path d="M330.177 384.72C330.177 395.497 318.51 402.233 309.177 396.844L287.322 384.226C277.989 378.838 277.989 365.366 287.322 359.978L309.177 347.36C318.51 341.971 330.177 348.707 330.177 359.484L330.177 384.72Z" fill="#FFFB8F"/>
<path d="M110.177 52.1662C110.177 41.389 121.844 34.6532 131.177 40.0418L153.031 52.6595C162.365 58.0481 162.365 71.5196 153.031 76.9082L131.177 89.5259C121.844 94.9145 110.177 88.1788 110.177 77.4016L110.177 52.1662Z" fill="#FFFB8F"/>
</g>
<defs>
<filter id="filter0_d" x="10" y="14" width="420" height="420" filterUnits="userSpaceOnUse" color-interpolation-filters="sRGB">
<feFlood flood-opacity="0" result="BackgroundImageFix"/>
<feColorMatrix in="SourceAlpha" type="matrix" values="0 0 0 0 0 0 0 0 0 0 0 0 0 0 0 0 0 0 127 0"/>
<feOffset dy="4"/>
<feGaussianBlur stdDeviation="2"/>
<feColorMatrix type="matrix" values="0 0 0 0 0 0 0 0 0 0 0 0 0 0 0 0 0 0 0.25 0"/>
<feBlend mode="normal" in2="BackgroundImageFix" result="effect1_dropShadow"/>
<feBlend mode="normal" in="SourceGraphic" in2="effect1_dropShadow" result="shape"/>
</filter>
</defs>
</svg>
