<svg width="630" height="72" viewBox="0 0 630 72" fill="none" xmlns="http://www.w3.org/2000/svg">
<path d="M36.2634 71.316C29.37 71.316 23.166 69.8747 17.6514 66.992C12.1994 64.0467 7.90668 59.9733 4.77335 54.772C1.64002 49.5707 0.07335 43.68 0.07335 37.1C0.07335 30.52 1.64002 24.6293 4.77335 19.428C7.90668 14.2267 12.1994 10.1847 17.6514 7.30199C23.166 4.35666 29.37 2.884 36.2634 2.884C42.2794 2.884 47.7 3.94933 52.5254 6.08C57.3507 8.21066 61.3614 11.2813 64.5574 15.292L52.7134 26.008C48.452 20.8693 43.282 18.3 37.2034 18.3C33.6314 18.3 30.4354 19.0833 27.6154 20.65C24.858 22.2167 22.696 24.4413 21.1294 27.324C19.6254 30.144 18.8734 33.4027 18.8734 37.1C18.8734 40.7973 19.6254 44.0873 21.1294 46.97C22.696 49.79 24.858 51.9833 27.6154 53.55C30.4354 55.1167 33.6314 55.9 37.2034 55.9C43.282 55.9 48.452 53.3307 52.7134 48.192L64.5574 58.908C61.3614 62.9187 57.3507 65.9893 52.5254 68.12C47.7 70.2507 42.2794 71.316 36.2634 71.316ZM107.072 18.206C113.401 18.206 118.477 20.086 122.3 23.846C126.185 27.606 128.128 33.2773 128.128 40.86V70H110.268V43.774C110.268 36.818 107.479 33.34 101.902 33.34C98.8311 33.34 96.3558 34.3427 94.4758 36.348C92.6585 38.3533 91.7498 41.3613 91.7498 45.372V70H73.8898V0.251996H91.7498V23.752C93.6925 21.9347 95.9798 20.556 98.6118 19.616C101.244 18.676 104.064 18.206 107.072 18.206ZM194.031 44.62C194.031 44.7453 193.937 46.218 193.749 49.038H156.713C157.465 51.67 158.907 53.7067 161.037 55.148C163.231 56.5267 165.957 57.216 169.215 57.216C171.659 57.216 173.759 56.8713 175.513 56.182C177.331 55.4927 179.148 54.3647 180.965 52.798L190.365 62.574C185.415 68.0887 178.177 70.846 168.651 70.846C162.698 70.846 157.465 69.718 152.953 67.462C148.441 65.206 144.932 62.0727 142.425 58.062C139.981 54.0513 138.759 49.508 138.759 44.432C138.759 39.4187 139.95 34.938 142.331 30.99C144.775 26.9793 148.128 23.846 152.389 21.59C156.651 19.334 161.445 18.206 166.771 18.206C171.847 18.206 176.453 19.2713 180.589 21.402C184.725 23.47 187.984 26.5093 190.365 30.52C192.809 34.468 194.031 39.168 194.031 44.62ZM166.865 30.896C164.108 30.896 161.789 31.6793 159.909 33.246C158.092 34.8127 156.933 36.9433 156.431 39.638H177.299C176.798 36.9433 175.607 34.8127 173.727 33.246C171.91 31.6793 169.623 30.896 166.865 30.896ZM224.483 18.206C232.943 18.206 239.398 20.1487 243.847 24.034C248.296 27.8567 250.521 33.7473 250.521 41.706V70H233.883V63.42C231.314 68.3707 226.3 70.846 218.843 70.846C214.895 70.846 211.48 70.1567 208.597 68.778C205.714 67.3993 203.521 65.5507 202.017 63.232C200.576 60.8507 199.855 58.156 199.855 55.148C199.855 50.3227 201.704 46.594 205.401 43.962C209.098 41.2673 214.801 39.92 222.509 39.92H232.661C232.348 34.5307 228.744 31.836 221.851 31.836C219.407 31.836 216.932 32.2433 214.425 33.058C211.918 33.81 209.788 34.8753 208.033 36.254L202.017 24.128C204.837 22.248 208.252 20.8067 212.263 19.804C216.336 18.7387 220.41 18.206 224.483 18.206ZM223.825 59.566C225.893 59.566 227.71 59.0647 229.277 58.062C230.844 57.0593 231.972 55.5867 232.661 53.644V49.226H224.953C219.752 49.226 217.151 50.9493 217.151 54.396C217.151 55.9627 217.746 57.216 218.937 58.156C220.128 59.096 221.757 59.566 223.825 59.566ZM298.83 67.932C297.326 68.872 295.478 69.5927 293.284 70.094C291.154 70.5953 288.866 70.846 286.422 70.846C279.78 70.846 274.672 69.2167 271.1 65.958C267.528 62.6993 265.742 57.8427 265.742 51.388V34.28H258.316V20.932H265.742V7.678H283.602V20.932H295.258V34.28H283.602V51.2C283.602 53.0173 284.072 54.4587 285.012 55.524C286.015 56.5267 287.331 57.028 288.96 57.028C291.028 57.028 292.846 56.4953 294.412 55.43L298.83 67.932ZM322.449 18.958H302.239V4.2H361.177V18.958H341.061V70H322.449V18.958ZM388.381 18.206C396.841 18.206 403.295 20.1487 407.745 24.034C412.194 27.8567 414.419 33.7473 414.419 41.706V70H397.781V63.42C395.211 68.3707 390.198 70.846 382.741 70.846C378.793 70.846 375.377 70.1567 372.495 68.778C369.612 67.3993 367.419 65.5507 365.915 63.232C364.473 60.8507 363.753 58.156 363.753 55.148C363.753 50.3227 365.601 46.594 369.299 43.962C372.996 41.2673 378.699 39.92 386.407 39.92H396.559C396.245 34.5307 392.642 31.836 385.749 31.836C383.305 31.836 380.829 32.2433 378.323 33.058C375.816 33.81 373.685 34.8753 371.931 36.254L365.915 24.128C368.735 22.248 372.15 20.8067 376.161 19.804C380.234 18.7387 384.307 18.206 388.381 18.206ZM387.723 59.566C389.791 59.566 391.608 59.0647 393.175 58.062C394.741 57.0593 395.869 55.5867 396.559 53.644V49.226H388.851C383.649 49.226 381.049 50.9493 381.049 54.396C381.049 55.9627 381.644 57.216 382.835 58.156C384.025 59.096 385.655 59.566 387.723 59.566ZM460.754 18.206C467.083 18.206 472.159 20.086 475.982 23.846C479.867 27.606 481.81 33.2773 481.81 40.86V70H463.95V43.774C463.95 36.818 461.161 33.34 455.584 33.34C452.513 33.34 450.038 34.3427 448.158 36.348C446.341 38.3533 445.432 41.3613 445.432 45.372V70H427.572V19.052H444.586V24.598C446.591 22.53 448.973 20.9633 451.73 19.898C454.487 18.77 457.495 18.206 460.754 18.206ZM530.059 67.932C528.555 68.872 526.707 69.5927 524.513 70.094C522.383 70.5953 520.095 70.846 517.651 70.846C511.009 70.846 505.901 69.2167 502.329 65.958C498.757 62.6993 496.971 57.8427 496.971 51.388V34.28H489.545V20.932H496.971V7.678H514.831V20.932H526.487V34.28H514.831V51.2C514.831 53.0173 515.301 54.4587 516.241 55.524C517.244 56.5267 518.56 57.028 520.189 57.028C522.257 57.028 524.075 56.4953 525.641 55.43L530.059 67.932ZM555.84 25.162C557.658 22.8433 560.008 21.12 562.89 19.992C565.836 18.8013 569.188 18.206 572.948 18.206V34.28C571.319 34.092 569.972 33.998 568.906 33.998C565.084 33.998 562.076 35.032 559.882 37.1C557.752 39.168 556.686 42.3327 556.686 46.594V70H538.826V19.052H555.84V25.162ZM603.545 18.206C612.005 18.206 618.46 20.1487 622.909 24.034C627.359 27.8567 629.583 33.7473 629.583 41.706V70H612.945V63.42C610.376 68.3707 605.363 70.846 597.905 70.846C593.957 70.846 590.542 70.1567 587.659 68.778C584.777 67.3993 582.583 65.5507 581.079 63.232C579.638 60.8507 578.917 58.156 578.917 55.148C578.917 50.3227 580.766 46.594 584.463 43.962C588.161 41.2673 593.863 39.92 601.571 39.92H611.723C611.41 34.5307 607.807 31.836 600.913 31.836C598.469 31.836 595.994 32.2433 593.487 33.058C590.981 33.81 588.85 34.8753 587.095 36.254L581.079 24.128C583.899 22.248 587.315 20.8067 591.325 19.804C595.399 18.7387 599.472 18.206 603.545 18.206ZM602.887 59.566C604.955 59.566 606.773 59.0647 608.339 58.062C609.906 57.0593 611.034 55.5867 611.723 53.644V49.226H604.015C598.814 49.226 596.213 50.9493 596.213 54.396C596.213 55.9627 596.809 57.216 597.999 58.156C599.19 59.096 600.819 59.566 602.887 59.566Z" fill="black"/>
</svg>
