<svg width="734" height="622" viewBox="0 0 734 622" fill="none" xmlns="http://www.w3.org/2000/svg">
<path d="M45.6005 596.512C37.6805 596.512 30.5525 594.856 24.2165 591.544C17.9525 588.16 13.0205 583.48 9.42045 577.504C5.82045 571.528 4.02045 564.76 4.02045 557.2C4.02045 549.64 5.82045 542.872 9.42045 536.896C13.0205 530.92 17.9525 526.276 24.2165 522.964C30.5525 519.58 37.6805 517.888 45.6005 517.888C52.5125 517.888 58.7405 519.112 64.2845 521.56C69.8285 524.008 74.4365 527.536 78.1085 532.144L64.5005 544.456C59.6045 538.552 53.6645 535.6 46.6805 535.6C42.5765 535.6 38.9045 536.5 35.6645 538.3C32.4965 540.1 30.0125 542.656 28.2125 545.968C26.4845 549.208 25.6205 552.952 25.6205 557.2C25.6205 561.448 26.4845 565.228 28.2125 568.54C30.0125 571.78 32.4965 574.3 35.6645 576.1C38.9045 577.9 42.5765 578.8 46.6805 578.8C53.6645 578.8 59.6045 575.848 64.5005 569.944L78.1085 582.256C74.4365 586.864 69.8285 590.392 64.2845 592.84C58.7405 595.288 52.5125 596.512 45.6005 596.512ZM126.955 535.492C134.227 535.492 140.059 537.652 144.451 541.972C148.915 546.292 151.147 552.808 151.147 561.52V595H130.627V564.868C130.627 556.876 127.423 552.88 121.015 552.88C117.487 552.88 114.643 554.032 112.483 556.336C110.395 558.64 109.351 562.096 109.351 566.704V595H88.8308V514.864H109.351V541.864C111.583 539.776 114.211 538.192 117.235 537.112C120.259 536.032 123.499 535.492 126.955 535.492ZM226.866 565.84C226.866 565.984 226.758 567.676 226.542 570.916H183.99C184.854 573.94 186.51 576.28 188.958 577.936C191.478 579.52 194.61 580.312 198.354 580.312C201.162 580.312 203.574 579.916 205.59 579.124C207.678 578.332 209.766 577.036 211.854 575.236L222.654 586.468C216.966 592.804 208.65 595.972 197.706 595.972C190.866 595.972 184.854 594.676 179.67 592.084C174.486 589.492 170.454 585.892 167.574 581.284C164.766 576.676 163.362 571.456 163.362 565.624C163.362 559.864 164.73 554.716 167.466 550.18C170.274 545.572 174.126 541.972 179.022 539.38C183.918 536.788 189.426 535.492 195.546 535.492C201.378 535.492 206.67 536.716 211.422 539.164C216.174 541.54 219.918 545.032 222.654 549.64C225.462 554.176 226.866 559.576 226.866 565.84ZM195.654 550.072C192.486 550.072 189.822 550.972 187.662 552.772C185.574 554.572 184.242 557.02 183.666 560.116H207.642C207.066 557.02 205.698 554.572 203.538 552.772C201.45 550.972 198.822 550.072 195.654 550.072ZM261.853 535.492C271.573 535.492 278.989 537.724 284.101 542.188C289.213 546.58 291.769 553.348 291.769 562.492V595H272.653V587.44C269.701 593.128 263.941 595.972 255.373 595.972C250.837 595.972 246.913 595.18 243.601 593.596C240.289 592.012 237.769 589.888 236.041 587.224C234.385 584.488 233.557 581.392 233.557 577.936C233.557 572.392 235.681 568.108 239.929 565.084C244.177 561.988 250.729 560.44 259.585 560.44H271.249C270.889 554.248 266.749 551.152 258.829 551.152C256.021 551.152 253.177 551.62 250.297 552.556C247.417 553.42 244.969 554.644 242.953 556.228L236.041 542.296C239.281 540.136 243.205 538.48 247.813 537.328C252.493 536.104 257.173 535.492 261.853 535.492ZM261.097 583.012C263.473 583.012 265.561 582.436 267.361 581.284C269.161 580.132 270.457 578.44 271.249 576.208V571.132H262.393C256.417 571.132 253.429 573.112 253.429 577.072C253.429 578.872 254.113 580.312 255.481 581.392C256.849 582.472 258.721 583.012 261.097 583.012ZM347.273 592.624C345.545 593.704 343.421 594.532 340.901 595.108C338.453 595.684 335.825 595.972 333.017 595.972C325.385 595.972 319.517 594.1 315.413 590.356C311.309 586.612 309.257 581.032 309.257 573.616V553.96H300.725V538.624H309.257V523.396H329.777V538.624H343.169V553.96H329.777V573.4C329.777 575.488 330.317 577.144 331.397 578.368C332.549 579.52 334.061 580.096 335.933 580.096C338.309 580.096 340.397 579.484 342.197 578.26L347.273 592.624ZM374.41 536.356H351.19V519.4H418.906V536.356H395.794V595H374.41V536.356ZM450.161 535.492C459.881 535.492 467.297 537.724 472.409 542.188C477.521 546.58 480.077 553.348 480.077 562.492V595H460.961V587.44C458.009 593.128 452.249 595.972 443.681 595.972C439.145 595.972 435.221 595.18 431.909 593.596C428.597 592.012 426.077 589.888 424.349 587.224C422.693 584.488 421.865 581.392 421.865 577.936C421.865 572.392 423.989 568.108 428.237 565.084C432.485 561.988 439.037 560.44 447.893 560.44H459.557C459.197 554.248 455.057 551.152 447.137 551.152C444.329 551.152 441.485 551.62 438.605 552.556C435.725 553.42 433.277 554.644 431.261 556.228L424.349 542.296C427.589 540.136 431.513 538.48 436.121 537.328C440.801 536.104 445.481 535.492 450.161 535.492ZM449.405 583.012C451.781 583.012 453.869 582.436 455.669 581.284C457.469 580.132 458.765 578.44 459.557 576.208V571.132H450.701C444.725 571.132 441.737 573.112 441.737 577.072C441.737 578.872 442.421 580.312 443.789 581.392C445.157 582.472 447.029 583.012 449.405 583.012ZM533.313 535.492C540.585 535.492 546.417 537.652 550.809 541.972C555.273 546.292 557.505 552.808 557.505 561.52V595H536.985V564.868C536.985 556.876 533.781 552.88 527.373 552.88C523.845 552.88 521.001 554.032 518.841 556.336C516.753 558.64 515.709 562.096 515.709 566.704V595H495.189V536.464H514.737V542.836C517.041 540.46 519.777 538.66 522.945 537.436C526.113 536.14 529.569 535.492 533.313 535.492ZM612.941 592.624C611.213 593.704 609.089 594.532 606.569 595.108C604.121 595.684 601.493 595.972 598.685 595.972C591.053 595.972 585.185 594.1 581.081 590.356C576.977 586.612 574.925 581.032 574.925 573.616V553.96H566.393V538.624H574.925V523.396H595.445V538.624H608.837V553.96H595.445V573.4C595.445 575.488 595.985 577.144 597.065 578.368C598.217 579.52 599.729 580.096 601.601 580.096C603.977 580.096 606.065 579.484 607.865 578.26L612.941 592.624ZM642.561 543.484C644.649 540.82 647.349 538.84 650.661 537.544C654.045 536.176 657.897 535.492 662.217 535.492V553.96C660.345 553.744 658.797 553.636 657.573 553.636C653.181 553.636 649.725 554.824 647.205 557.2C644.757 559.576 643.533 563.212 643.533 568.108V595H623.013V536.464H642.561V543.484ZM697.371 535.492C707.091 535.492 714.507 537.724 719.619 542.188C724.731 546.58 727.287 553.348 727.287 562.492V595H708.171V587.44C705.219 593.128 699.459 595.972 690.891 595.972C686.355 595.972 682.431 595.18 679.119 593.596C675.807 592.012 673.287 589.888 671.559 587.224C669.903 584.488 669.075 581.392 669.075 577.936C669.075 572.392 671.199 568.108 675.447 565.084C679.695 561.988 686.247 560.44 695.103 560.44H706.767C706.407 554.248 702.267 551.152 694.347 551.152C691.539 551.152 688.695 551.62 685.815 552.556C682.935 553.42 680.487 554.644 678.471 556.228L671.559 542.296C674.799 540.136 678.723 538.48 683.331 537.328C688.011 536.104 692.691 535.492 697.371 535.492ZM696.615 583.012C698.991 583.012 701.079 582.436 702.879 581.284C704.679 580.132 705.975 578.44 706.767 576.208V571.132H697.911C691.935 571.132 688.947 573.112 688.947 577.072C688.947 578.872 689.631 580.312 690.999 581.392C692.367 582.472 694.239 583.012 696.615 583.012Z" fill="black"/>
<g filter="url(#filter0_d)">
<circle cx="367" cy="218.638" r="136.223" fill="#FF6915" fill-opacity="0.75"/>
<path d="M355.216 21C360.605 11.6667 374.076 11.6667 379.465 21L392.083 42.8545C397.471 52.1878 390.736 63.8545 379.958 63.8545H354.723C343.946 63.8545 337.21 52.1878 342.599 42.8545L355.216 21Z" fill="#FFFB8F"/>
<path d="M566 206.854C575.333 212.243 575.333 225.714 566 231.103L544.145 243.72C534.812 249.109 523.146 242.373 523.146 231.596L523.146 206.361C523.146 195.583 534.812 188.848 544.146 194.236L566 206.854Z" fill="#FFFB8F"/>
<path d="M545.385 307.391C550.774 316.725 544.038 328.391 533.261 328.391L508.025 328.391C497.248 328.391 490.512 316.725 495.901 307.391L508.519 285.537C513.907 276.203 527.379 276.203 532.767 285.537L545.385 307.391Z" fill="#FFFB8F"/>
<path d="M379.465 419C374.076 428.333 360.605 428.333 355.216 419L342.598 397.145C337.21 387.812 343.946 376.146 354.723 376.146L379.958 376.146C390.735 376.146 397.471 387.812 392.083 397.146L379.465 419Z" fill="#FFFB8F"/>
<path d="M168 231.103C158.667 225.714 158.667 212.242 168 206.854L189.855 194.236C199.188 188.848 210.855 195.583 210.854 206.361L210.854 231.596C210.854 242.373 199.188 249.109 189.854 243.72L168 231.103Z" fill="#FFFB8F"/>
<path d="M188.583 129.391C183.194 120.058 189.93 108.391 200.707 108.391L225.942 108.391C236.719 108.391 243.455 120.058 238.067 129.391L225.449 151.246C220.06 160.579 206.589 160.579 201.2 151.246L188.583 129.391Z" fill="#FFFB8F"/>
<path d="M532.926 108.584C543.703 108.584 550.439 120.251 545.051 129.584L532.433 151.439C527.044 160.772 513.573 160.772 508.184 151.439L495.566 129.584C490.178 120.251 496.914 108.584 507.691 108.584L532.926 108.584Z" fill="#FFFB8F"/>
<path d="M200.372 328.584C189.595 328.584 182.859 316.918 188.248 307.584L200.866 285.73C206.254 276.396 219.726 276.396 225.115 285.73L237.732 307.584C243.121 316.918 236.385 328.584 225.608 328.584L200.372 328.584Z" fill="#FFFB8F"/>
<path d="M278.37 397.179C269.037 402.567 257.37 395.832 257.37 385.054L257.37 359.819C257.37 349.042 269.037 342.306 278.37 347.695L300.224 360.312C309.558 365.701 309.558 379.172 300.224 384.561L278.37 397.179Z" fill="#FFFB8F"/>
<path d="M456.37 40.3762C465.703 34.9876 477.37 41.7234 477.37 52.5006L477.37 77.736C477.37 88.5132 465.703 95.2489 456.37 89.8603L434.515 77.2426C425.182 71.854 425.182 58.3825 434.515 52.9939L456.37 40.3762Z" fill="#FFFB8F"/>
<path d="M477.177 384.72C477.177 395.497 465.51 402.233 456.177 396.844L434.322 384.226C424.989 378.838 424.989 365.366 434.322 359.978L456.177 347.36C465.51 341.971 477.177 348.707 477.177 359.484L477.177 384.72Z" fill="#FFFB8F"/>
<path d="M257.177 52.1663C257.177 41.3891 268.844 34.6533 278.177 40.0419L300.031 52.6596C309.365 58.0482 309.365 71.5197 300.031 76.9083L278.177 89.526C268.843 94.9146 257.177 88.1789 257.177 77.4017L257.177 52.1663Z" fill="#FFFB8F"/>
</g>
<defs>
<filter id="filter0_d" x="157" y="14" width="420" height="420" filterUnits="userSpaceOnUse" color-interpolation-filters="sRGB">
<feFlood flood-opacity="0" result="BackgroundImageFix"/>
<feColorMatrix in="SourceAlpha" type="matrix" values="0 0 0 0 0 0 0 0 0 0 0 0 0 0 0 0 0 0 127 0"/>
<feOffset dy="4"/>
<feGaussianBlur stdDeviation="2"/>
<feColorMatrix type="matrix" values="0 0 0 0 0 0 0 0 0 0 0 0 0 0 0 0 0 0 0.25 0"/>
<feBlend mode="normal" in2="BackgroundImageFix" result="effect1_dropShadow"/>
<feBlend mode="normal" in="SourceGraphic" in2="effect1_dropShadow" result="shape"/>
</filter>
</defs>
</svg>
